<?xml version="1.0" standalone="no"?>
<!DOCTYPE svg PUBLIC "-//W3C//DTD SVG 1.1//EN" "http://www.w3.org/Graphics/SVG/1.1/DTD/svg11.dtd">
<svg width="32px" height="32px" viewBox="0 0 376 376" version="1.1" xmlns="http://www.w3.org/2000/svg" xmlns:xlink="http://www.w3.org/1999/xlink" xml:space="preserve" style="fill-rule: evenodd; stroke-linejoin: round; clip-rule: evenodd; stroke-miterlimit: 1.41421">
    <g transform="matrix(1,0,0,1,-1.1,-49.3)">
        <g transform="matrix(1,0,0,1,-3.4,-34.2)">
            <g id="Layer 1">
                <path d="M 209.3 148.9 C 163.3 148.9 119.4 176.4 102.6 214.8 C 58 218.6 23 254.6 23 300.2 C 23 348.3 62 385.7 110.1 385.7 L 305.1 385.7 C 347 385.7 381 352.5 381 310.5 C 381 275.7 357.5 246.2 325.6 237.3 C 312.9 185 261.9 148.9 209.3 148.9 M 209.3 158.2 C 259.2 158.2 305.3 193.2 316.6 239.5 L 317.8 244.8 L 323.1 246.2 C 351.7 254.2 371.7 280.7 371.7 310.5 C 371.7 328.3 364.8 344.8 352.2 357.2 C 339.7 369.6 323 376.4 305.1 376.4 L 110.1 376.4 C 66.5 376.4 32.3 342.9 32.3 300.2 C 32.3 283.7 37.5 268.4 46.5 256 C 59.2 238.2 79.6 226.1 103.4 224.1 L 108.9 223.6 L 111.1 218.6 C 126.7 183 167.1 158.2 209.3 158.2" style="fill: rgb(0, 136, 116); fill-rule: nonzero"/>
                <path d="M 209.3 148.9 C 163.3 148.9 119.4 176.4 102.6 214.8 C 58 218.6 23 254.6 23 300.2 C 23 348.3 62 385.7 110.1 385.7 L 305.1 385.7 C 347 385.7 381 352.5 381 310.5 C 381 275.7 357.5 246.2 325.6 237.3 C 312.9 185 261.9 148.9 209.3 148.9 M 209.3 158.2 C 259.2 158.2 305.3 193.2 316.6 239.5 L 317.8 244.8 L 323.1 246.2 C 351.7 254.2 371.7 280.7 371.7 310.5 C 371.7 328.3 364.8 344.8 352.2 357.2 C 339.7 369.6 323 376.4 305.1 376.4 L 110.1 376.4 C 66.5 376.4 32.3 342.9 32.3 300.2 C 32.3 283.7 37.5 268.4 46.5 256 C 59.2 238.2 79.6 226.1 103.4 224.1 L 108.9 223.6 L 111.1 218.6 C 126.7 183 167.1 158.2 209.3 158.2" style="fill: rgb(0, 136, 116); fill-rule: nonzero"/>
                <path d="M 130.5 338 C 128.9 338 128.3 338.2 128 338.5 C 127.5 338.9 126.7 340.2 126.7 348 C 126.7 355.8 127.5 357.1 128 357.5 C 128.3 357.8 128.9 358 130.5 358 L 134.7 358 C 136.4 358 136.9 357.8 137.3 357.5 C 137.8 357.1 138.5 355.8 138.5 348 C 138.5 340.2 137.8 338.9 137.3 338.5 C 136.9 338.2 136.4 338 134.7 338 L 130.5 338 Z M 136.3 332.2 C 139.8 332.2 141.4 332.6 142.8 333.8 C 144.7 335.5 146.2 338.8 146.2 348 C 146.2 357.1 144.7 360.4 142.8 362.2 C 141.4 363.4 139.8 363.8 136.3 363.8 L 128.9 363.8 C 125.4 363.8 123.8 363.4 122.4 362.2 C 120.5 360.4 119 357.1 119 348 C 119 338.8 120.5 335.5 122.4 333.8 C 123.8 332.6 125.4 332.2 128.9 332.2 L 136.3 332.2 Z" style="fill: rgb(0, 136, 116); fill-rule: nonzero"/>
                <path d="M 164.2 357 L 164.2 334.7 L 159.7 336.2 L 158.1 331.4 L 165.6 328.6 L 170.7 328.6 L 170.7 357 L 164.2 357 Z" style="fill: rgb(0, 136, 116); fill-rule: nonzero"/>
                <path d="M 194.9 326.5 C 193.6 326.5 193.2 326.6 193 326.9 C 192.6 327.2 192 328.1 192 334 C 192 339.9 192.6 340.8 193 341.1 C 193.2 341.4 193.6 341.5 194.9 341.5 L 198 341.5 C 199.3 341.5 199.7 341.4 200 341.1 C 200.4 340.8 200.9 339.9 200.9 334 C 200.9 328.1 200.4 327.2 200 326.9 C 199.7 326.6 199.3 326.5 198 326.5 L 194.9 326.5 Z M 199.2 322.1 C 201.9 322.1 203.1 322.4 204.1 323.3 C 205.5 324.6 206.7 327.1 206.7 334 C 206.7 340.9 205.5 343.4 204.1 344.7 C 203.1 345.6 201.9 345.9 199.2 345.9 L 193.7 345.9 C 191.1 345.9 189.8 345.6 188.8 344.7 C 187.4 343.4 186.2 340.9 186.2 334 C 186.2 327.1 187.4 324.6 188.8 323.3 C 189.8 322.4 191.1 322.1 193.7 322.1 L 199.2 322.1 Z" style="fill: rgb(0, 136, 116); fill-rule: nonzero"/>
                <path d="M 221 334.4 L 221 317.4 L 217.6 318.6 L 216.4 315 L 222 312.9 L 226 312.9 L 226 334.4 L 221 334.4 Z" style="fill: rgb(0, 136, 116); fill-rule: nonzero"/>
                <path d="M 240.7 322.2 L 240.7 306.6 L 237.5 307.7 L 236.4 304.3 L 241.6 302.4 L 245.2 302.4 L 245.2 322.2 L 240.7 322.2 Z" style="fill: rgb(0, 136, 116); fill-rule: nonzero"/>
                <path d="M 258.8 292.8 C 258 292.8 257.7 292.9 257.5 293.1 C 257.3 293.3 256.9 293.9 256.9 297.7 C 256.9 301.6 257.3 302.2 257.5 302.4 C 257.7 302.5 258 302.6 258.8 302.6 L 260.8 302.6 C 261.6 302.6 261.9 302.5 262.1 302.4 C 262.3 302.2 262.7 301.6 262.7 297.7 C 262.7 293.9 262.3 293.3 262.1 293.1 C 261.9 292.9 261.6 292.8 260.8 292.8 L 258.8 292.8 Z M 261.6 290 C 263.3 290 264.1 290.2 264.8 290.8 C 265.7 291.6 266.5 293.2 266.5 297.7 C 266.5 302.2 265.7 303.8 264.8 304.7 C 264.1 305.3 263.3 305.5 261.6 305.5 L 258 305.5 C 256.3 305.5 255.5 305.3 254.8 304.7 C 253.9 303.8 253.2 302.2 253.2 297.7 C 253.2 293.2 253.9 291.6 254.8 290.8 C 255.5 290.2 256.3 290 258 290 L 261.6 290 Z" style="fill: rgb(0, 136, 116); fill-rule: nonzero"/>
                <path d="M 273.4 277.3 C 272.7 277.3 272.5 277.4 272.4 277.5 C 272.1 277.7 271.9 278.2 271.9 281.4 C 271.9 284.6 272.1 285 272.4 285.2 C 272.5 285.4 272.7 285.4 273.4 285.4 L 275.1 285.4 C 275.8 285.4 276 285.4 276.1 285.2 C 276.3 285 276.6 284.6 276.6 281.4 C 276.6 278.2 276.3 277.7 276.1 277.5 C 276 277.4 275.8 277.3 275.1 277.3 L 273.4 277.3 Z M 275.7 275 C 277.1 275 277.8 275.1 278.4 275.6 C 279.1 276.3 279.7 277.6 279.7 281.4 C 279.7 285.1 279.1 286.4 278.4 287.1 C 277.8 287.6 277.1 287.8 275.7 287.8 L 272.7 287.8 C 271.3 287.8 270.7 287.6 270.1 287.1 C 269.3 286.4 268.7 285.1 268.7 281.4 C 268.7 277.6 269.3 276.3 270.1 275.6 C 270.7 275.1 271.3 275 272.7 275 L 275.7 275 Z" style="fill: rgb(0, 136, 116); fill-rule: nonzero"/>
                <path d="M 284.2 262.7 C 283.7 262.7 283.6 262.7 283.5 262.8 C 283.3 263 283.1 263.3 283.1 265.6 C 283.1 267.9 283.3 268.3 283.5 268.4 C 283.6 268.5 283.7 268.6 284.2 268.6 L 285.4 268.6 C 285.9 268.6 286.1 268.5 286.2 268.4 C 286.4 268.3 286.6 267.9 286.6 265.6 C 286.6 263.3 286.4 263 286.2 262.8 C 286.1 262.7 285.9 262.7 285.4 262.7 L 284.2 262.7 Z M 285.9 261 C 286.9 261 287.4 261.1 287.8 261.4 C 288.4 261.9 288.8 262.9 288.8 265.6 C 288.8 268.3 288.4 269.3 287.8 269.8 C 287.4 270.2 286.9 270.3 285.9 270.3 L 283.7 270.3 C 282.7 270.3 282.2 270.2 281.8 269.8 C 281.3 269.3 280.8 268.3 280.8 265.6 C 280.8 262.9 281.3 261.9 281.8 261.4 C 282.2 261.1 282.7 261 283.7 261 L 285.9 261 Z" style="fill: rgb(0, 136, 116); fill-rule: nonzero"/>
                <path d="M 308.8 163.1 C 298.5 192.9 262.4 216.3 233.2 223.2 C 205.8 229.7 181.6 224.4 156.2 234.1 C 107.2 253 103.9 299.1 120.4 325.9 C 121.7 328 185.5 323 216.8 309.5 C 258.6 291.6 283.5 257.9 289.9 245.3 C 290.4 244.8 292 243.5 294.5 244.3 C 297.1 245.1 297.3 247.3 297.3 248 C 294.4 261.1 282.2 306.1 233.8 334.7 C 211.8 347.7 194.9 354.1 182.5 357.5 C 180.5 358.1 180.6 359.6 182.9 359.6 C 213.1 359.4 282.1 363.8 310.8 327.3 C 344 283 326.4 213.3 308.8 163.1" style="fill: rgb(0, 136, 116); fill-rule: nonzero"/>
            </g>
        </g>
    </g>
</svg>
