<svg xmlns="http://www.w3.org/2000/svg" xmlns:xlink="http://www.w3.org/1999/xlink" aria-hidden="true" focusable="false" width="1em" height="1em" style="-ms-transform: rotate(360deg); -webkit-transform: rotate(360deg); transform: rotate(360deg);" preserveAspectRatio="xMidYMid meet" viewBox="0 0 24 24"><path d="M11 5H8l4-4 4 4h-3v4.43a8.638 8.638 0 0 0-2 1.69V5zm11 6l-4-4v3a6.75 6.75 0 0 0-7 6.17 3 3 0 1 0 2 0c.47-4 4.47-4.2 4.95-4.2v3L22 11zm-11.37.59A7.72 7.72 0 0 0 6 10V7l-4 4 4 4v-3a5.76 5.76 0 0 1 3.64 1.4 7.86 7.86 0 0 1 .99-1.81z" fill="white"/></svg>