<svg xmlns="http://www.w3.org/2000/svg" xmlns:xlink="http://www.w3.org/1999/xlink" aria-hidden="true" focusable="false" width="1em" height="1em" style="-ms-transform: rotate(360deg); -webkit-transform: rotate(360deg); transform: rotate(360deg);" preserveAspectRatio="xMidYMid meet" viewBox="0 0 24 24"><path d="M12 19.998c-4.412 0-8-3.589-8-8s3.588-8 8-8c4.41 0 8 3.589 8 8s-3.59 8-8 8zm0-18c-5.524 0-10 4.477-10 10s4.476 10 10 10c5.522 0 10-4.477 10-10s-4.478-10-10-10zm1 5h-2v4H7v2h4v4h2v-4h4v-2h-4v-4z" fill="black"/></svg>